<?xml version="1.0" encoding="utf-8"?>
<!DOCTYPE svg PUBLIC "-//W3C//DTD SVG 1.1//EN" "http://www.w3.org/Graphics/SVG/1.1/DTD/svg11.dtd">
<svg version="1.1" id="tiliard16" xmlns="http://www.w3.org/2000/svg" xmlns:xlink="http://www.w3.org/1999/xlink"
  x="0px" y="0px" width="14px" height="14px" viewBox="0 0 14 14" enable-background="new 0 0 14 14" xml:space="preserve">
  <g>
    <path fill="#000000" d="m 5,12 0,-2 2,0 2,0 0,2 0,2 -2,0 -2,0 0,-2 z M 5,7 5,5 7,5 9,5 9,7 9,9 7,9 5,9 5,7 Z M 0,2 0,0 2,0 4,0 4,2 4,4 2,4 0,4 0,2 Z M 5,2 5,0 7,0 9,0 9,2 9,4 7,4 5,4 5,2 Z m 5,0 0,-2 2,0 2,0 0,2 0,2 -2,0 -2,0 0,-2 z"/>
  </g>
</svg>
