<?xml version="1.0" encoding="utf-8"?>
<!DOCTYPE svg PUBLIC "-//W3C//DTD SVG 1.1//EN" "http://www.w3.org/Graphics/SVG/1.1/DTD/svg11.dtd">
<svg version="1.1" id="tiliard" xmlns="http://www.w3.org/2000/svg" xmlns:xlink="http://www.w3.org/1999/xlink"
  x="0px" y="0px" width="200px" height="25px" viewBox="0 0 200 25" enable-background="new 0 0 200 25" xml:space="preserve">
  <g>
    <path fill="#ffffff" d="m 8.75,21.25 0,-3.75 3.75,0 3.75,0 0,3.75 0,3.75 -3.75,0 -3.75,0 0,-3.75 z m 26.25,0 0,-3.75 3.75,0 3.75,0 0,3.75 0,3.75 -3.75,0 -3.75,0 0,-3.75 z m 17.5,0 0,-3.75 3.75,0 3.75,0 0,3.75 0,3.75 -3.75,0 -3.75,0 0,-3.75 z m 8.75,0 0,-3.75 3.75,0 3.75,0 0,3.75 0,3.75 -3.75,0 -3.75,0 0,-3.75 z m 8.75,0 0,-3.75 3.75,0 3.75,0 0,3.75 0,3.75 -3.75,0 -3.75,0 0,-3.75 z m 17.5,0 0,-3.75 3.75,0 3.75,0 0,3.75 0,3.75 -3.75,0 -3.75,0 0,-3.75 z m 17.5,0 0,-3.75 3.75,0 3.75,0 0,3.75 0,3.75 -3.75,0 -3.75,0 0,-3.75 z m 17.5,0 0,-3.75 3.75,0 3.75,0 0,3.75 0,3.75 -3.75,0 -3.75,0 0,-3.75 z m 17.5,0 0,-3.75 3.75,0 3.75,0 0,3.75 0,3.75 -3.75,0 -3.75,0 0,-3.75 z m 17.5,0 0,-3.75 3.75,0 3.75,0 0,3.75 0,3.75 -3.75,0 -3.75,0 0,-3.75 z m 17.5,0 0,-3.75 3.75,0 3.75,0 0,3.75 0,3.75 -3.75,0 -3.75,0 0,-3.75 z m 8.75,0 0,-3.75 3.75,0 3.75,0 0,3.75 0,3.75 -3.75,0 -3.75,0 0,-3.75 z m -175,-8.75 0,-3.75 3.75,0 3.75,0 0,3.75 0,3.75 -3.75,0 -3.75,0 0,-3.75 z m 43.75,0 0,-3.75 3.75,0 3.75,0 0,3.75 0,3.75 -3.75,0 -3.75,0 0,-3.75 z m 52.5,0 0,-3.75 3.75,0 3.75,0 0,3.75 0,3.75 -3.75,0 -3.75,0 0,-3.75 z m 8.75,0 0,-3.75 3.75,0 3.75,0 0,3.75 0,3.75 -3.75,0 -3.75,0 0,-3.75 z m 8.75,0 0,-3.75 3.75,0 3.75,0 0,3.75 0,3.75 -3.75,0 -3.75,0 0,-3.75 z m 17.5,0 0,-3.75 3.75,0 3.75,0 0,3.75 0,3.75 -3.75,0 -3.75,0 0,-3.75 z m 8.75,0 0,-3.75 3.75,0 3.75,0 0,3.75 0,3.75 -3.75,0 -3.75,0 0,-3.75 z m 26.25,0 0,-3.75 3.75,0 3.75,0 0,3.75 0,3.75 -3.75,0 -3.75,0 0,-3.75 z m 17.5,0 0,-3.75 3.75,0 3.75,0 0,3.75 0,3.75 -3.75,0 -3.75,0 0,-3.75 z M 0,3.75 0,0 3.75,0 7.5,0 7.5,3.75 7.5,7.5 3.75,7.5 0,7.5 0,3.75 Z m 8.75,0 0,-3.75 3.75,0 3.75,0 0,3.75 0,3.75 -3.75,0 -3.75,0 0,-3.75 z m 8.75,0 0,-3.75 3.75,0 3.75,0 0,3.75 0,3.75 -3.75,0 -3.75,0 0,-3.75 z m 17.5,0 0,-3.75 3.75,0 3.75,0 0,3.75 0,3.75 -3.75,0 -3.75,0 0,-3.75 z m 17.5,0 0,-3.75 3.75,0 3.75,0 0,3.75 0,3.75 -3.75,0 -3.75,0 0,-3.75 z m 35,0 0,-3.75 3.75,0 3.75,0 0,3.75 0,3.75 -3.75,0 -3.75,0 0,-3.75 z m 26.25,0 0,-3.75 3.75,0 3.75,0 0,3.75 0,3.75 -3.75,0 -3.75,0 0,-3.75 z m 26.25,0 0,-3.75 3.75,0 3.75,0 0,3.75 0,3.75 -3.75,0 -3.75,0 0,-3.75 z m 8.75,0 0,-3.75 3.75,0 3.75,0 0,3.75 0,3.75 -3.75,0 -3.75,0 0,-3.75 z m 8.75,0 0,-3.75 3.75,0 3.75,0 0,3.75 0,3.75 -3.75,0 -3.75,0 0,-3.75 z m 17.5,0 0,-3.75 3.75,0 3.75,0 0,3.75 0,3.75 -3.75,0 -3.75,0 0,-3.75 z m 8.75,0 0,-3.75 3.75,0 3.75,0 0,3.75 0,3.75 -3.75,0 -3.75,0 0,-3.75 z"/>
  </g>
</svg>
