<svg xmlns="http://www.w3.org/2000/svg" xmlns:xlink="http://www.w3.org/1999/xlink" width="480" height="600" viewBox="0 0 480 600">
  <defs>
    <path id="slovak-w-a" d="M240.519042,0.290887098 C141.837937,47.8236401 0.683880216,142.167045 0.683880216,328.792518 C0.683880216,515.417991 9.60624794,600.290884 9.60624794,600.290884 L240.519042,600.290884 L471.436392,600.290884 C471.436392,600.290884 480.36161,515.417991 480.36161,328.792518 C480.36161,142.167045 339.206421,47.8236401 240.519042,0.290887098 Z"/>
  </defs>
  <g fill="none" fill-rule="evenodd" transform="matrix(1 0 0 -1 -.523 600.29)">
    <path d="M240.519042,0.290887098 C141.837937,47.8236401 0.683880216,142.167045 0.683880216,328.792518 C0.683880216,515.417991 9.60624794,600.290884 9.60624794,600.290884 L240.519042,600.290884 L471.436392,600.290884 C471.436392,600.290884 480.36161,515.417991 480.36161,328.792518 C480.36161,142.167045 339.206421,47.8236401 240.519042,0.290887098 Z"/>
    <mask id="slovak-w-b" fill="#fff">
      <use xlink:href="#slovak-w-a"/>
    </mask>
    <path stroke="#F1F1F1" stroke-width="10" d="M240.519111,5.84489824 C179.2684,35.5878532 127.761463,70.834054 87.3106442,115.728836 C34.656897,174.167171 5.68388022,244.430697 5.68388022,328.792518 C5.68388022,410.358689 7.35478597,478.677435 10.1388075,534.2762 C11.1124741,553.720971 12.155246,570.183575 13.197397,583.729944 C13.5422778,588.212868 13.8635718,592.064182 14.1538774,595.290884 L466.888903,595.290884 C467.179302,592.06416 467.500702,588.212806 467.845698,583.729823 C468.888181,570.183467 469.931285,553.720877 470.905262,534.27612 C473.690171,478.677382 475.36161,410.358663 475.36161,328.792518 C475.36161,244.430467 446.388174,174.166895 393.733533,115.728878 C353.281407,70.833651 301.771973,35.5870267 240.519111,5.84489824 Z"/>
    <g mask="url(#slovak-w-b)">
      <g transform="translate(31.54 -61.91)">
        <path fill="#F1F1F1" fill-rule="nonzero" d="M230.084604,439.634006 C256.804374,439.202231 308.935484,438.1556 355.35486,453.688611 C355.35486,453.688611 354.129705,437.077582 354.129705,417.727621 C354.129705,398.373093 355.35486,381.76322 355.35486,381.76322 C312.776393,396.011174 260.195822,396.307773 230.084604,395.926193 L230.084604,292.848068 L187.87801,292.848068 L187.87801,395.926193 C157.769069,396.307773 105.187938,396.011232 62.6077531,381.76322 C62.6077531,381.76322 63.8340533,398.373093 63.8340533,417.727621 C63.8340533,437.077582 62.6077531,453.688611 62.6077531,453.688611 C109.027701,438.1556 161.158239,439.202231 187.87801,439.634006 L187.87801,504.369258 C163.524725,504.585431 128.431279,503.422432 88.7520224,490.144105 C88.7520224,490.144105 89.9783226,506.755135 89.9783226,526.108518 C89.9783226,545.459624 88.7520224,562.070642 88.7520224,562.070642 C128.372534,548.813996 163.423203,547.632178 187.769642,547.843223 C186.518811,588.834334 174.576309,640.50345 174.576309,640.50345 C174.576309,640.50345 199.154318,638.585279 208.979601,638.585279 C218.815141,638.585279 243.385744,640.50345 243.385744,640.50345 C243.385744,640.50345 231.446664,588.834334 230.192971,547.843223 C254.541127,547.632178 289.590663,548.813996 329.21003,562.070642 C329.21003,562.070642 327.984863,545.459624 327.984863,526.108518 C327.984863,506.755135 329.21003,490.144105 329.21003,490.144105 C289.532479,503.422432 254.437328,504.585431 230.084604,504.369258 L230.084604,439.634006 Z"/>
        <path stroke="#F1F1F1" stroke-width="10" d="M204.700685,7.61346907 L5.94815717,184.775693 C5.99751615,184.91707 6.04799918,185.061017 6.09960581,185.207498 C7.09071356,188.020677 8.2810074,191.162644 9.66909826,194.549994 C13.6346607,204.227132 18.3775456,213.901439 23.8754732,222.900284 C39.2020261,247.986331 57.1659504,262.777822 77.3234256,262.777822 C93.7333445,262.777822 106.717249,257.164279 116.790123,247.774385 C120.319757,244.484075 123.228734,240.956719 125.546383,237.441547 C126.348658,236.224737 127.016482,235.103713 127.554005,234.110526 C127.859049,233.546894 128.043273,233.173944 128.111188,233.023895 L133.031204,222.153888 L137.33045,233.284031 C137.370153,233.386815 137.461145,233.615496 137.603155,233.9616 C137.847508,234.557138 138.142384,235.253308 138.487493,236.041628 C139.482238,238.313888 140.674823,240.854141 142.06262,243.594363 C146.030557,251.429102 150.751485,259.26335 156.193846,266.550714 C171.427469,286.948652 189.11715,298.999468 208.979601,298.999468 C228.843894,298.999468 246.534907,286.948593 261.769501,266.550597 C267.21219,259.263239 271.933379,251.428999 275.901516,243.59427 C277.289384,240.854052 278.482025,238.313804 279.476815,236.041548 C279.82194,235.253231 280.116828,234.557063 280.361192,233.961527 C280.503207,233.615424 280.594203,233.386746 280.633906,233.283963 L284.933663,222.152979 L289.853291,233.024224 C289.921188,233.17426 290.105373,233.547196 290.410361,234.110814 C290.947791,235.103984 291.615511,236.224991 292.417676,237.441783 C294.73501,240.956912 297.643681,244.484224 301.173043,247.774496 C311.245181,257.164313 324.228814,262.777822 340.639199,262.777822 C360.796655,262.777822 378.760353,247.986353 394.086554,222.900326 C399.584357,213.901486 404.327109,204.227182 408.292539,194.550048 C409.680583,191.162699 410.870834,188.020733 411.861903,185.207555 C411.905023,185.085158 411.947359,184.964531 411.988909,184.845694 L204.700685,7.61346907 Z"/>
      </g>
    </g>
  </g>
</svg>
