<svg xmlns="http://www.w3.org/2000/svg" xmlns:xlink="http://www.w3.org/1999/xlink" width="480" height="600" viewBox="0 0 480 600">
  <defs>
    <path id="slovak-a" d="M240.519042,0.290887098 C141.837937,47.8236401 0.683880216,142.167045 0.683880216,328.792518 C0.683880216,515.417991 9.60624794,600.290884 9.60624794,600.290884 L240.519042,600.290884 L471.436392,600.290884 C471.436392,600.290884 480.36161,515.417991 480.36161,328.792518 C480.36161,142.167045 339.206421,47.8236401 240.519042,0.290887098 Z"/>
  </defs>
  <g fill="none" fill-rule="evenodd" transform="matrix(1 0 0 -1 -.523 600.29)">
    <path d="M240.519042,0.290887098 C141.837937,47.8236401 0.683880216,142.167045 0.683880216,328.792518 C0.683880216,515.417991 9.60624794,600.290884 9.60624794,600.290884 L240.519042,600.290884 L471.436392,600.290884 C471.436392,600.290884 480.36161,515.417991 480.36161,328.792518 C480.36161,142.167045 339.206421,47.8236401 240.519042,0.290887098 Z"/>
    <mask id="slovak-b" fill="#f9f9f9">
      <use xlink:href="#slovak-a"/>
    </mask>
    <path stroke="#f9f9f9" stroke-width="20" d="M240.51918,11.4076014 C180.760358,40.6675265 130.504193,75.2595961 91.0252418,119.07574 C39.1718309,176.625813 10.6838802,245.712987 10.6838802,328.792518 C10.6838802,410.276216 12.3527478,478.511625 15.1325509,534.026146 C16.1040001,553.426635 17.1439539,569.844749 18.1826659,583.346417 C18.376164,585.861596 18.5621185,588.176001 18.7392026,590.290884 L462.303703,590.290884 C462.48085,588.175936 462.666871,585.861451 462.860438,583.346173 C463.89948,569.844534 464.939764,553.426448 465.911523,534.025986 C468.692211,478.51152 470.36161,410.276164 470.36161,328.792518 C470.36161,245.712775 441.873254,176.625572 390.018973,119.075823 C350.538739,75.2592369 300.280131,40.6667479 240.51918,11.4076014 Z"/>
    <g mask="url(#slovak-b)">
      <g transform="translate(31.54 -61.91)">
        <path fill="#f9f9f9" fill-rule="nonzero" d="M227.146892,428.866021 C251.004825,428.46592 297.5524,427.496069 339,441.889603 C339,441.889603 337.906066,426.497133 337.906066,408.566654 C337.906066,390.631943 339,375.240545 339,375.240545 C300.981926,388.443291 254.03303,388.718133 227.146892,388.364544 L227.146892,292.848068 L189.460861,292.848068 L189.460861,388.364544 C162.576757,388.718133 115.627361,388.443345 77.6077531,375.240545 C77.6077531,375.240545 78.7027097,390.631943 78.7027097,408.566654 C78.7027097,426.497133 77.6077531,441.889603 77.6077531,441.889603 C119.055864,427.496069 165.602928,428.46592 189.460861,428.866021 L189.460861,488.852397 C167.71595,489.052713 136.38121,487.975029 100.951824,475.67078 C100.951824,475.67078 102.046781,491.06325 102.046781,508.9969 C102.046781,526.928439 100.951824,542.320899 100.951824,542.320899 C136.328757,530.036739 167.625302,528.941618 189.364101,529.137181 C188.247241,567.121249 177.583847,615 177.583847,615 C177.583847,615 199.529413,613.222544 208.302354,613.222544 C217.084452,613.222544 239.023405,615 239.023405,615 C239.023405,615 228.363068,567.121249 227.243652,529.137181 C248.983985,528.941618 280.279518,530.036739 315.655428,542.320899 C315.655428,542.320899 314.561483,526.928439 314.561483,508.9969 C314.561483,491.06325 315.655428,475.67078 315.655428,475.67078 C280.227565,487.975029 248.891302,489.052713 227.146892,488.852397 L227.146892,428.866021 Z"/>
        <path stroke="#f9f9f9" stroke-width="20" d="M204.769165,14.2504537 L11.7972947,186.259968 C12.539395,188.260755 13.3724262,190.401003 14.2957041,192.654072 C18.1669862,202.101138 22.7956899,211.542545 28.1421706,220.293506 C42.6542063,244.046375 59.3307315,257.777822 77.3234256,257.777822 C92.4045385,257.777822 104.194401,252.680519 113.380756,244.117035 C116.604235,241.11212 119.262705,237.888524 121.372045,234.689292 C122.092511,233.596563 122.686413,232.599626 123.156706,231.730661 C123.403941,231.273842 123.535835,231.006831 123.556063,230.96214 L133.396094,209.222128 L141.994587,231.482412 C142.022001,231.553383 142.10022,231.749963 142.228915,232.063617 C142.458749,232.623768 142.738502,233.284235 143.067812,234.036465 C144.026138,236.225534 145.179101,238.681391 146.523181,241.335293 C150.369011,248.928931 154.944358,256.521591 160.19995,263.558869 C174.583965,282.819177 190.995782,293.999468 208.979601,293.999468 C226.965361,293.999468 243.378507,282.819059 257.763485,263.558635 C263.019389,256.521369 267.594983,248.928726 271.441003,241.335107 C272.785148,238.681214 273.938164,236.225365 274.896531,234.036306 C275.225855,233.28408 275.505619,232.623617 275.735462,232.06347 C275.864161,231.74982 275.942382,231.553245 275.969796,231.482277 L284.569309,209.220309 L294.408566,230.962799 C294.428778,231.007463 294.560635,231.274446 294.807816,231.731237 C295.278017,232.600168 295.871816,233.597071 296.59217,234.689766 C298.701192,237.888908 301.359344,241.112419 304.58253,244.117256 C313.768123,252.680586 325.557654,257.777822 340.639199,257.777822 C358.631855,257.777822 375.308142,244.046418 389.81983,220.29359 C395.166187,211.542638 399.79476,202.101239 403.665911,192.65418 C404.56772,190.453429 405.383425,188.360321 406.112391,186.399682 L204.769165,14.2504537 Z"/>
      </g>
    </g>
  </g>
</svg>
