<?xml version="1.0" encoding="utf-8"?>
<!DOCTYPE svg PUBLIC "-//W3C//DTD SVG 1.1//EN" "http://www.w3.org/Graphics/SVG/1.1/DTD/svg11.dtd">
<svg version="1.1" id="2keyplayers" xmlns="http://www.w3.org/2000/svg" xmlns:xlink="http://www.w3.org/1999/xlink"
  x="0px" y="0px" width="265px" height="120px" viewBox="0 0 265 120" enable-background="new 0 0 265 120" xml:space="preserve">
  <g>
    <path fill="#000000" d="m 40,120 -10,0 0,-6.25 0,-6.25 6.25,0 6.25,0 0,-0.625 0,-0.625 -2.5,0 -2.5,0 0,-3.125 0,-3.125 6.25,0 6.25,0 0,6.25 0,6.25 -6.25,0 -6.25,0 0,0.625 0,0.625 6.25,0 6.25,0 0,3.125 0,3.125 -10,0 z m 26.875,0 -4.375,0 0,-10 0,-10 4.375,0 4.375,0 0,3.125 0,3.125 0.625,0 0.625,0 0,-3.125 0,-3.125 5,0 5,0 0,6.25 0,6.25 -1.875,0 -1.875,0 0,0.625 0,0.625 1.875,0 1.875,0 0,3.125 0,3.125 -5,0 -5,0 0,-3.125 0,-3.125 -0.625,0 -0.625,0 0,3.125 0,3.125 -4.375,0 z m 23.75,0 -6.875,0 0,-6.875 0,-6.875 6.875,0 6.875,0 0,1.875 0,1.875 -4.375,0 -4.375,0 0,0.625 0,0.625 4.375,0 4.375,0 0,1.875 0,1.875 -4.375,0 -4.375,0 0,0.625 0,0.625 4.375,0 4.375,0 0,1.875 0,1.875 -6.875,0 z m 15,0 -6.875,0 0,-1.875 0,-1.875 3.125,0 3.125,0 0,-0.625 0,-0.625 -3.125,0 -3.125,0 0,-4.375 0,-4.375 3.125,0 3.125,0 0,1.875 0,1.875 0.625,0 0.625,0 0,-1.875 0,-1.875 3.125,0 3.125,0 0,6.875 0,6.875 -6.875,0 z m 25.625,0 -6.25,0 0,-6.25 0,-6.25 6.25,0 6.25,0 0,-0.625 0,-0.625 -6.25,0 -6.25,0 0,-3.125 0,-3.125 10,0 10,0 0,6.25 0,6.25 -6.25,0 -6.25,0 0,0.625 0,0.625 2.5,0 2.5,0 0,3.125 0,3.125 -6.25,0 z m 21.875,0 -6.875,0 0,-6.875 0,-6.875 3.125,0 3.125,0 0,5 0,5 3.75,0 3.75,0 0,1.875 0,1.875 -6.875,0 z m 11.25,0 -3.125,0 0,-6.875 0,-6.875 6.875,0 6.875,0 0,6.875 0,6.875 -3.125,0 -3.125,0 0,-1.875 0,-1.875 -0.625,0 -0.625,0 0,1.875 0,1.875 -3.125,0 z m 3.75,-6.25 0.625,0 0,-2.5 0,-2.5 -0.625,0 -0.625,0 0,2.5 0,2.5 0.625,0 z m 15,6.25 -6.875,0 0,-1.875 0,-1.875 3.125,0 3.125,0 0,-0.625 0,-0.625 -3.125,0 -3.125,0 0,-4.375 0,-4.375 3.125,0 3.125,0 0,1.875 0,1.875 0.625,0 0.625,0 0,-1.875 0,-1.875 3.125,0 3.125,0 0,6.875 0,6.875 -6.875,0 z m 15,0 -6.875,0 0,-6.875 0,-6.875 6.875,0 6.875,0 0,1.875 0,1.875 -4.375,0 -4.375,0 0,0.625 0,0.625 4.375,0 4.375,0 0,1.875 0,1.875 -4.375,0 -4.375,0 0,0.625 0,0.625 4.375,0 4.375,0 0,1.875 0,1.875 -6.875,0 z m 11.25,0 -3.125,0 0,-6.875 0,-6.875 6.875,0 6.875,0 0,3.125 0,3.125 -1.25,0 -1.25,0 0,0.625 0,0.625 1.25,0 1.25,0 0,3.125 0,3.125 -3.125,0 -3.125,0 0,-1.875 0,-1.875 -0.625,0 -0.625,0 0,1.875 0,1.875 -3.125,0 z m 3.75,-7.5 0.625,0 0,-1.875 0,-1.875 -0.625,0 -0.625,0 0,1.875 0,1.875 0.625,0 z m 15,7.5 -6.875,0 0,-1.875 0,-1.875 4.375,0 4.375,0 0,-0.625 0,-0.625 -4.375,0 -4.375,0 0,-4.375 0,-4.375 6.875,0 6.875,0 0,1.875 0,1.875 -4.375,0 -4.375,0 0,0.625 0,0.625 4.375,0 4.375,0 0,4.375 0,4.375 -6.875,0 z M 117.5,95 0,95 0,62.5 0,30 15,30 30,30 30,15 30,0 147.5,0 265,0 l 0,32.5 0,32.5 -15,0 -15,0 0,15 0,15 -117.5,0 z M 47.5,85 85,85 85,75 85,65 62.5,65 40,65 40,60 40,55 62.5,55 85,55 85,32.5 85,10 62.5,10 40,10 l 0,10 0,10 10,0 10,0 0,5 0,5 -25,0 -25,0 0,22.5 0,22.5 37.5,0 z m 57.5,0 10,0 0,-10 0,-10 5,0 5,0 0,10 0,10 22.5,0 22.5,0 0,-10 0,-10 -10,0 -10,0 0,-5 0,-5 10,0 10,0 0,-22.5 0,-22.5 -22.5,0 -22.5,0 0,10 0,10 -5,0 -5,0 0,-10 0,-10 -10,0 -10,0 0,37.5 0,37.5 10,0 z m 97.5,0 22.5,0 0,-10 0,-10 -7.5,0 -7.5,0 0,-5 0,-5 22.5,0 22.5,0 0,-22.5 0,-22.5 -37.5,0 -37.5,0 0,10 0,10 22.5,0 22.5,0 0,5 0,5 -22.5,0 -22.5,0 0,22.5 0,22.5 22.5,0 z"/>
  </g>
</svg>
