<svg xmlns="http://www.w3.org/2000/svg" width="16" height="16" viewBox="0 0 16 16">
  <g fill="none" fill-rule="evenodd" transform="translate(1 3)">
    <polygon fill="#000" points="6.5 10 0 10 0 6.5 0 3 .5 3 1 3 1 1.5 1 0 7.5 0 14 0 14 3.5 14 7 13.5 7 13 7 13 8.5 13 10"/>
    <polygon fill="#F9F9F9" points="11 9 12 9 12 8 12 7 11.5 7 11 7 11 6.5 11 6 12 6 13 6 13 3.5 13 1 11.5 1 10 1 10 2 10 3 11 3 12 3 12 3.5 12 4 11 4 10 4 10 6.5 10 9"/>
    <polygon fill="#F9F9F9" points="5.5 9 6 9 6 8 6 7 6.5 7 7 7 7 8 7 9 8 9 9 9 9 8 9 7 8.5 7 8 7 8 6.5 8 6 8.5 6 9 6 9 3.5 9 1 8 1 7 1 7 2 7 3 6.5 3 6 3 6 2 6 1 5.5 1 5 1 5 5 5 9"/>
    <polygon fill="#F9F9F9" points="2.5 9 4 9 4 8 4 7 3 7 2 7 2 6.5 2 6 3 6 4 6 4 3.5 4 1 3 1 2 1 2 2 2 3 2.5 3 3 3 3 3.5 3 4 2 4 1 4 1 6.5 1 9"/>
  </g>
</svg>
