<?xml version="1.0" encoding="utf-8"?>
<!DOCTYPE svg PUBLIC "-//W3C//DTD SVG 1.1//EN" "http://www.w3.org/Graphics/SVG/1.1/DTD/svg11.dtd">
<svg version="1.1" id="2kp" xmlns="http://www.w3.org/2000/svg" xmlns:xlink="http://www.w3.org/1999/xlink"
  x="0px" y="0px" width="140px" height="50px" viewBox="0 0 140 50" enable-background="new 0 0 140 50" xml:space="preserve">
  <g>
    <path fill="#ffffff" d="M 62.5,50 0,50 0,32.5 0,15 7.5,15 15,15 15,7.5 15,0 77.5,0 140,0 l 0,17.5 0,17.5 -7.5,0 -7.5,0 0,7.5 0,7.5 -62.5,0 z M 25,45 45,45 45,40 45,35 32.5,35 20,35 20,32.5 20,30 32.5,30 45,30 45,17.5 45,5 32.5,5 20,5 l 0,5 0,5 5,0 5,0 0,2.5 L 30,20 17.5,20 5,20 5,32.5 5,45 25,45 Z m 30,0 5,0 0,-5 0,-5 2.5,0 2.5,0 0,5 0,5 12.5,0 12.5,0 0,-5 0,-5 -5,0 -5,0 0,-2.5 0,-2.5 5,0 5,0 L 90,17.5 90,5 77.5,5 65,5 l 0,5 0,5 -2.5,0 -2.5,0 0,-5 0,-5 -5,0 -5,0 0,20 0,20 5,0 z m 52.5,0 12.5,0 0,-5 0,-5 -5,0 -5,0 0,-2.5 0,-2.5 12.5,0 12.5,0 0,-12.5 0,-12.5 -20,0 -20,0 0,5 0,5 12.5,0 12.5,0 0,2.5 0,2.5 -12.5,0 -12.5,0 0,12.5 0,12.5 12.5,0 z"/>
  </g>
</svg>
