<?xml version="1.0" encoding="utf-8"?>
<!DOCTYPE svg PUBLIC "-//W3C//DTD SVG 1.1//EN" "http://www.w3.org/Graphics/SVG/1.1/DTD/svg11.dtd">
<svg version="1.1" id="2kp16" xmlns="http://www.w3.org/2000/svg" xmlns:xlink="http://www.w3.org/1999/xlink"
  x="0px" y="0px" width="14px" height="10px" viewBox="0 0 14 10" enable-background="new 0 0 14 10" xml:space="preserve">
  <g>
    <path fill="#000000" d="M 6.5,10 0,10 0,6.5 0,3 0.5,3 1,3 1,1.5 1,0 7.5,0 14,0 14,3.5 14,7 13.5,7 13,7 13,8.5 13,10 6.5,10 Z M 2.5,9 4,9 4,8 4,7 3,7 2,7 2,6.5 2,6 3,6 4,6 4,3.5 4,1 3,1 2,1 2,2 2,3 2.5,3 3,3 3,3.5 3,4 2,4 1,4 1,6.5 1,9 2.5,9 Z M 5.5,9 6,9 6,8 6,7 6.5,7 7,7 7,8 7,9 8,9 9,9 9,8 9,7 8.5,7 8,7 8,6.5 8,6 8.5,6 9,6 9,3.5 9,1 8,1 7,1 7,2 7,3 6.5,3 6,3 6,2 6,1 5.5,1 5,1 5,5 5,9 5.5,9 Z M 11,9 12,9 12,8 12,7 11.5,7 11,7 11,6.5 11,6 12,6 13,6 13,3.5 13,1 11.5,1 10,1 l 0,1 0,1 1,0 1,0 0,0.5 0,0.5 -1,0 -1,0 0,2.5 0,2.5 1,0 z"/>
  </g>
</svg>
