<svg xmlns="http://www.w3.org/2000/svg" width="96" height="36" viewBox="0 0 96 36">
  <g fill-rule="evenodd">
    <path d="M2,2 L34,2 L34,34 L2,34 L2,2 Z M2,2 L2,12 L12,12 L12,2 L2,2 Z M14,4 L14,12 L32,12 L32,4 L14,4 Z M22,12 L22,14 L32,14 L32,12 L22,12 Z M4,24 L4,32 L32,32 L32,24 L4,24 Z M4,22 L4,24 L14,24 L14,22 L4,22 Z M4,14 L4,22 L32,22 L32,14 L4,14 Z"/>
    <path d="M32,2 L64,2 L64,34 L32,34 L32,2 Z M34,4 L34,32 L42,32 L42,4 L34,4 Z M44,24 L44,32 L62,32 L62,24 L44,24 Z M44,4 L44,22 L62,22 L62,4 L44,4 Z M42,12 L42,24 L44,24 L44,12 L42,12 Z M44,22 L44,24 L54,24 L54,22 L44,22 Z"/>
    <path d="M62,2 L94,2 L94,34 L62,34 L62,2 Z M62,2 L62,12 L72,12 L72,2 L62,2 Z M74,4 L74,12 L92,12 L92,4 L74,4 Z M82,12 L82,14 L92,14 L92,12 L82,12 Z M64,24 L64,32 L92,32 L92,24 L64,24 Z M64,22 L64,24 L74,24 L74,22 L64,22 Z M64,14 L64,22 L92,22 L92,14 L64,14 Z" transform="rotate(180 78 18)"/>
  </g>
</svg>
